<svg xmlns="http://www.w3.org/2000/svg" fill="none" viewBox="0 0 697 378"><path stroke="url(#a)" d="M904.996 84.768c4.951 21.468-2.835 44.877-21.317 68.868-18.478 23.988-47.602 48.493-85.174 72.106-75.139 47.226-183.967 90.827-308.673 119.593-124.707 28.767-241.638 37.241-329.871 27.701-44.119-4.77-81.034-14.042-108.153-27.511-27.123-13.472-44.377-31.106-49.329-52.573-4.952-21.468 2.835-44.877 21.316-68.868 18.478-23.988 47.602-48.493 85.174-72.107 75.139-47.225 183.967-90.826 308.674-119.593C542.35 3.619 659.281-4.855 747.514 4.685c44.119 4.77 81.034 14.042 108.153 27.512 27.122 13.471 44.377 31.105 49.329 52.572Z"/><defs><linearGradient id="a" x1="23" x2="539" y1="262.5" y2="135.5" gradientUnits="userSpaceOnUse"><stop stop-color="#E6E6EB"/><stop offset="1" stop-color="#E6E6EB" stop-opacity="0"/></linearGradient></defs></svg>